<?xml version="1.0" encoding="UTF-8"?>
<svg id="Layer_1" data-name="Layer 1" xmlns="http://www.w3.org/2000/svg" viewBox="0 0 2417.26 1271.08">
  <defs>
    <style>
      .cls-1 {
        fill: #fff;
      }

      .cls-2 {
        fill: #009bdf;
      }
    </style>
  </defs>
  <rect class="cls-2" x=".4" y="0" width="2416.46" height="1271.08"/>
  <g>
    <g>
      <path class="cls-1" d="M522.44,667.91l-.42-.35-140.78-138.23c-10.05-9.87-11.61-25.52-3.69-37.17h0c4.92-7.24,12.92-11.79,21.66-12.31,34.02-2.03,68.05-4.06,102.07-6.08,6.07-.95,11.99-2.68,17.6-5.26.07-.03.13-.06.2-.09,4.3-1.99,7.97-4.17,11.04-6.26,1.35-.93,2.58-1.83,3.69-2.7l181.37-154.43c-129.83,25.38-259.65,50.76-389.49,76.14-12.75,2.49-24.4,8.98-33.21,18.53-32.92,35.64-65.84,71.28-98.75,106.92-20.42,22.11-16.74,57.14,7.81,74.52l177.32,125.56c5.37,3.8,8.52,9.57,9.14,15.66.51,4.91-.63,10-3.56,14.41l-81.63,122.45-8.14,12.2-63.1,94.66,123.81-60.42c.3-.15.58-.34.82-.57l168.18-160.49c22.29-21.26,21.06-56.91-1.95-76.67Z"/>
      <path class="cls-1" d="M371.29,724.6c-42.46-28.13-84.91-56.26-127.37-84.38,17.45,67.62,34.9,135.24,52.36,202.87,25.01-39.49,50.01-78.99,75.02-118.48Z"/>
    </g>
    <g>
      <g>
        <path class="cls-1" d="M750.11,748.89c-6.95-6.39-15.44-12.1-25.49-17.16-10.05-5.05-21.51-9.63-34.39-13.74-6.89-2.21-13.08-4.49-18.57-6.83-5.5-2.33-10.17-4.77-14-7.32-3.83-2.55-6.77-5.3-8.82-8.25-2.05-2.94-3.09-6.25-3.09-9.91,0-4.44,1.28-8.52,3.83-12.24,2.55-3.73,6.33-6.7,11.33-8.91,5-2.22,11.17-3.33,18.49-3.33s13.83,1.33,18.83,3.99c4.99,2.67,8.74,6.33,11.24,11,2.5,4.66,3.75,10.05,3.75,16.16h58.14c0-15.33-3.86-28.62-11.58-39.89-7.72-11.27-18.38-19.99-31.98-26.15-13.61-6.16-29.29-9.24-47.06-9.24-13.44,0-25.82,1.58-37.15,4.75-11.33,3.16-21.18,7.72-29.57,13.66-8.39,5.94-14.9,13.1-19.57,21.49-4.66,8.38-6.99,17.8-6.99,28.23s2.28,20.4,6.83,28.57c4.55,8.16,10.71,15.27,18.49,21.32,7.77,6.06,16.59,11.33,26.48,15.83,9.88,4.49,20.16,8.53,30.82,12.07,9.1,3,16.47,5.86,22.08,8.58,5.6,2.72,9.91,5.42,12.9,8.08,3,2.67,5.06,5.52,6.16,8.58,1.12,3.05,1.67,6.47,1.67,10.25,0,4.33-1.05,8.3-3.16,11.91-2.12,3.61-5.45,6.49-10,8.65-4.56,2.17-10.56,3.26-17.99,3.26-6.89,0-13-.64-18.33-1.92-5.33-1.28-9.82-3.4-13.49-6.33-3.67-2.94-6.45-6.85-8.33-11.74-1.88-4.89-2.83-10.89-2.83-18h-58.63c0,14.33,2.91,26.68,8.74,37.06,5.83,10.39,13.64,18.88,23.41,25.49,9.77,6.61,20.68,11.5,32.73,14.66,12.05,3.16,24.29,4.75,36.73,4.75,13.54,0,25.81-1.5,36.81-4.5,11-2.99,20.43-7.41,28.31-13.24,7.89-5.82,13.93-12.96,18.16-21.41,4.22-8.43,6.33-18.09,6.33-28.98,0-10.21-1.81-19.37-5.42-27.48-3.61-8.1-8.89-15.35-15.82-21.74Z"/>
        <path class="cls-1" d="M854.24,690.28l-3.45-69.9h-49.3v242.53h58.47v-56.64l-5.72-115.99ZM986.39,620.38l-54.14,168.73-54.14-168.73h-47.64l23.77,69.9,58.69,172.63h38.64l58.69-172.61,23.77-69.92h-47.64ZM1013.7,620.38l-3.44,69.92-5.72,115.97v56.64h58.63v-242.53h-49.47Z"/>
        <path class="cls-1" d="M1173.45,620.38l-89.11,242.53h62.79l13.99-45.31,13.93-45.14,7.6-24.62,18.47-59.79,5.15-16.7,6.99-50.96h-39.81ZM1128.48,772.46v45.14h32.63l13.93-45.14h-46.57ZM1202.76,772.46l-13.93,45.14h64.08v-45.14h-50.14ZM1228.59,620.38h-40.31l7.66,50.96,5.17,16.7,26.12,84.41,13.98,45.14,14.03,45.31h62.96l-89.61-242.53Z"/>
        <path class="cls-1" d="M1511.84,653.36c-7.49-10.88-18.13-19.1-31.9-24.65-13.76-5.55-29.97-8.32-48.63-8.32h-95.45v242.53h58.47v-197.39h36.98c7.22,0,13.29,1.33,18.23,3.99,4.95,2.67,8.7,6.49,11.25,11.5,2.55,4.99,3.83,11,3.83,17.99s-1.26,12.8-3.75,17.74c-2.5,4.94-6.19,8.74-11.08,11.41-4.89,2.66-11.05,3.99-18.49,3.99h-5.5v45.14h26.65l19.16-10.83c3.14-1.2,6.17-2.5,9.08-3.9,6.54-3.15,12.48-6.82,17.82-11.02,7.72-6.05,13.74-13.74,18.07-23.07,4.33-9.32,6.5-20.93,6.5-34.82,0-15.99-3.76-29.42-11.25-40.31ZM1480.69,762.57l-3.75-7.26-51.14.28v21.7l42.81,85.62h62.63v-2.5l-50.55-97.84Z"/>
        <path class="cls-1" d="M1537.75,620.38v45.14h202.72v-45.14h-202.72ZM1609.04,620.38v242.53h58.46v-242.53h-58.46Z"/>
      </g>
      <g>
        <path class="cls-1" d="M1761.52,620.38v242.53h58.47v-242.53h-58.47ZM1803.33,620.38v45.14h120.43v-45.14h-120.43ZM1803.33,721.32v44.97h110.93v-44.97h-110.93Z"/>
        <path class="cls-1" d="M1951.92,620.38v242.53h58.3v-242.53h-58.3Z"/>
        <path class="cls-1" d="M2034.03,620.38v45.14h202.72v-45.14h-202.72ZM2105.33,620.38v242.53h58.47v-242.53h-58.47Z"/>
      </g>
    </g>
  </g>
</svg>