<?xml version="1.0" encoding="UTF-8" standalone="no"?>
<svg
   viewBox="177.96267 294.89056 534.68317 661.04999"
   data-name="Layer 1"
   id="Layer_1"
   width="534.68317"
   height="661.04999"
   version="1.1"
   sodipodi:docname="smartfit_blue_s_only.svg"
   xmlns:inkscape="http://www.inkscape.org/namespaces/inkscape"
   xmlns:sodipodi="http://sodipodi.sourceforge.net/DTD/sodipodi-0.dtd"
   xmlns="http://www.w3.org/2000/svg"
   xmlns:svg="http://www.w3.org/2000/svg">
  <sodipodi:namedview
     id="namedview2"
     pagecolor="#ffffff"
     bordercolor="#000000"
     borderopacity="0.25"
     inkscape:showpageshadow="2"
     inkscape:pageopacity="0.0"
     inkscape:pagecheckerboard="0"
     inkscape:deskcolor="#d1d1d1" />
  <defs
     id="defs1">
    <style
       id="style1">
      .cls-1 {
        fill: #9ca0a8;
      }

      .cls-2 {
        fill: #009bdf;
      }
    </style>
  </defs>
  <g
     id="blue-s"
     transform="translate(-2.7841898,-10.13944)">
    <path
       d="m 522.69,667.91 -0.42,-0.35 -140.78,-138.23 c -10.05,-9.87 -11.61,-25.52 -3.69,-37.17 v 0 c 4.92,-7.24 12.92,-11.79 21.66,-12.31 34.02,-2.03 68.05,-4.06 102.07,-6.08 6.07,-0.95 11.99,-2.68 17.6,-5.26 0.07,-0.03 0.13,-0.06 0.2,-0.09 4.3,-1.99 7.97,-4.17 11.04,-6.26 1.35,-0.93 2.58,-1.83 3.69,-2.7 L 715.43,305.03 c -129.83,25.38 -259.65,50.76 -389.49,76.14 -12.75,2.49 -24.4,8.98 -33.21,18.53 -32.92,35.64 -65.84,71.28 -98.75,106.92 -20.42,22.11 -16.74,57.14 7.81,74.52 L 379.11,706.7 c 5.37,3.8 8.52,9.57 9.14,15.66 0.51,4.91 -0.63,10 -3.56,14.41 l -81.63,122.45 -8.14,12.2 -63.1,94.66 123.81,-60.42 c 0.3,-0.15 0.58,-0.34 0.82,-0.57 L 524.63,744.6 c 22.29,-21.26 21.06,-56.91 -1.95,-76.67 z"
       class="cls-2"
       id="path1" />
    <path
       d="m 371.53,724.6 c -42.46,-28.13 -84.91,-56.26 -127.37,-84.38 17.45,67.62 34.9,135.24 52.36,202.87 25.01,-39.49 50.01,-78.99 75.02,-118.48 z"
       class="cls-2"
       id="path2" />
  </g>
</svg>
